<?xml version="1.0" encoding="UTF-8"?>
<svg id="Layer_1" xmlns="http://www.w3.org/2000/svg" version="1.1" viewBox="0 0 32 32">
  <!-- Generator: Adobe Illustrator 30.3.0, SVG Export Plug-In . SVG Version: 2.1.3 Build 182)  -->
  <defs>
    <style>
      .st0 {
        fill: #a38e66;
      }
    </style>
  </defs>
  <path class="st0" d="M23.71,27.7c-.31-.09-.48-.17-.62-.31l-2.44-2.44-1.17-1.2-2.11-2.17-4.45-4.71-1.07-1.19c-.39-.43-.64-.74-1.2-1.15l.02,1.77.09,3.61.13,4.3c.04,1.18.13,2.14.97,2.89l1.88.16-.22.31-3.42-.13c-1.08.09-2.13.17-3.19.07-1.41-.13-2.73-.06-4.17.03-.11,0-.33-.1-.44-.2l1.03-.16c.49-.07.88-.32.97-.87l.18-1.08.06-19.42c0-.41.12-.77.3-1.04l3.39,3.69c.3.33.5.63,1.01.88l.05-4.11c.03-.12.09-.42.19-.41s.31.12.38.2l2.39,2.61,10.12,10.8c.18-1.56.02-3.04,0-4.58l-.07-4.52-.14-2.37c-.03-.46-.37-1.31-.85-1.38l-1.87-.27c.36-.23.7-.21,1.16-.17,1.18.09,2.35.12,3.51,0l3.05.05h1.17s2.23-.1,2.23-.1c0,.25-.2.37-.4.35-.82-.08-1.56.48-1.57,1.43l-.07,18.37-.12,2.55c-.33-.13-.57-.28-.79-.51l-3.78-3.79-.14,4.24h0ZM27.31,22.11l-.14-5.71-.24-9.32c-.03-1.02-.71-1.65-1.68-1.66-.6,0-1.2.27-1.27.92l-.16,1.49v12.15s3.41,3.69,3.41,3.69l.07-1.55h0ZM6.74,26.71c.57.68,1.85.61,2.19-.17.17-.39.31-.98.31-1.44l.03-12.26-3.47-3.76.04,4.27.1,3.39.1,4.07.11,3.51c.02.81.05,1.73.6,2.39h0ZM19.82,20.88l2.63,2.81c.21-.53.2-1.11.1-1.61l-2.2-2.35-1.93-2.03-6.84-7.48-1.04-1.08.04,1.8,4.56,4.85,1.15,1.24,2,2.17,1.54,1.69h0Z"/>
</svg>