<?xml version="1.0" encoding="UTF-8"?>
<svg id="Layer_1" xmlns="http://www.w3.org/2000/svg" version="1.1" viewBox="0 0 1550 263">
  <!-- Generator: Adobe Illustrator 30.3.0, SVG Export Plug-In . SVG Version: 2.1.3 Build 182)  -->
  <defs>
    <style>
      .st0 {
        fill: #a38e66;
      }
    </style>
  </defs>
  <g>
    <path class="st0" d="M899.19,213.48c-.76,2.66.43,6.74,1.62,8.15,1.53,1.81,5.04,2.74,7.63,2.93l3.03.22c.73.05,1.27,1.86,1.09,2.78l-25.53-.82-27.45.56-6.27-.05-26.08-.53-20.19-.96c-1.75-.08-4.47-.94-5.91-1.71,2.03-2.56,3.26-4.93,2.97-8l-3.79-40.12-9.7-101.02-19.11,38.35-15.43,32.76-17.96,38.05-16.53,35.4c-1.39,2.98-2.86,5.08-5.7,7.72l-11.84-21.29c-20.94-40.99-40.6-82.04-59.33-124.02l-1.02-2.27c-.25-.55-2.5-.06-2.89.37l-10,115.96-.59,19.23c-.11,3.66,3.12,7.99,6.74,8.48,4.07.56,7.41.51,11.24,2.65-9.31,3-17.97-.02-27.13.37l-25.25,1.06c1.85-3.67,4.9-3.31,8.41-3.5,5.77-.3,9.57-6.12,10.26-12.32l20.24-182.89c.21-1.91,2.47-3.11,3.92-2.67l20.68,42.35,7.55,15.44,30.65,63.15,4.3,8.77,19.8,39.78,67.07-143.12,13.34-27.64c2.93,3.3,3.22,6.29,3.66,10.28l18.54,168.23c.94,8.53,6.15,17.56,14.37,19.37,10.55,2.32,22.22,2.96,32.7.02,6.66-1.86,12.13-9.75,14.56-16.37l58.09-158.64,4.89-13.45,4.54-9.3,3.31,4.42,49.91,129.69c8.77,19.72,17.6,57.63,35.74,63.86l13.77,2.14-3.94,2.29-49.62-1.28c3.72-3.23,5.05-6.09,3.5-10.2l-24.99-66.4-61.56-.17-13.16,38.93-7.12,24.95ZM923.26,141.36l50.83.14c.98-.43,2.62-1.19,2.53-1.91l-.33-2.78-24.71-70.15c-.56-1.05-2.01-2.99-2.62-2.37l-2.42,2.49-20.1,62.5c-1.71,3.9-2.8,6.95-3.18,12.06Z"/>
    <path class="st0" d="M31.1,225.17l11.65-1.46c4.38-3.13,5.52-8.81,6-14.07s1.5-11.01,1.51-16.78l.19-130.75c.01-8.37-.21-16.29-2.56-24.02s-14.82-4.8-20.66-8.4c9.37-2.3,17.84-.65,26.94-.28,6.23.25,12.44-.04,18.86-.3,34.61-1.43,74.95-2.58,105.27,12.61,22.55,11.29,38.37,30.69,44.97,54.95,12.69,46.68-6.57,100.78-51.09,121.63-25.35,11.87-46.87,12.22-74.19,10.52l-28.09-1.75c-10.71-.67-20.99-.5-31.68.41-2.64.23-4.71.55-7.13-2.31ZM144.95,218.62c12.04-2.87,21.87-8.26,31.35-15.31,29.77-22.15,34.42-73.74,21.36-107.71-9.39-24.43-28.25-42.72-52.46-51.86-19.58-7.39-41.4-7.67-62.25-7.04-5.91.18-11.41,1.83-11.41,6.4l.23,149.75c0,5.92.78,12.61,2.98,17.61s9.87,7.49,15.06,8.52c18.23,3.62,36.69,4.03,55.13-.37Z"/>
    <path class="st0" d="M1256.05,229.98c-7.12-4.59-10.74-8.73-15.38-13.51l-58.1-59.85-21.36-22.94-62.75-68.75c-1.76,8.43-.6,14.82-.42,22.11l.84,32.96,1.05,38,.88,38.08c.18,7.77,1.03,15.97,4.42,22.73,4.05,8.06,17.32,3.17,21.22,8.31l-30.96-.48c-9.93-.15-19.34,2.07-29.93.27,5.14-4.74,17.46-.2,18.82-9.78l2.03-14.27.34-162.69c.01-5.55.07-9.64,2.33-15.1l36.6,39.4,62.23,66.46,12.65,13.57,42.38,46.61,3.54.85-1.45-63.9-.96-48.02-1.08-33.79c-.2-6.31-4.52-13.37-10.8-13.98l-14.46-1.42c2.66-2.13,5.08-2.56,8.33-2.43l27.29,1.05c7.89.3,15.26-2.44,23.48.34-3.8,2.21-7.8,1.75-11.7,2.81-5.35,1.46-7.56,8.4-7.58,14.19l-.41,159.04-1.09,24.13Z"/>
    <path class="st0" d="M283.17,195.8c-2.56,7.02-4.15,13.12-4.93,20.29.37,2.74,2.29,7.29,4.61,7.65l10.34,1.61c-1,4.42-13.04,1.05-25.16,1.33-10.79.25-21.02,1.33-31.9.45,2.95-4.8,7.35-2.07,10.87-2.9,8.64-2.04,14.48-8.67,17.55-16.93l21.88-58.97,11.26-31.06,32.13-88.08,2.84-2.98c.72-.76,2.77,2.18,3.17,3.24l50.05,130.45,14.37,36.12,7.35,15.19c5.5,8.78,14.01,14.15,24.52,13.31l2.56.95c.43.16-1.11,1.54-1.65,2.11-17.08.18-33.6-.09-51.43-1.38,4.15-3.04,4.79-6.34,3.12-10.79l-24.65-65.74-61.45.02-15.45,46.11ZM355.45,141.57c.41-4.43-.27-5.85-1.25-8.67l-18.13-51.92-6.62-16.86c-2.36.34-3.71,2.4-4.45,4.68l-14.59,44.71c-2.97,9.1-5.43,16.83-8.23,27.75l53.27.3Z"/>
    <path class="st0" d="M573.87,191.55c.89,11.21-1.33,21.12-3.82,31.59-.69,2.92-4.96,5.26-7.95,5.22l-38.11-.53-22.04-.99-26.89-.29c-7.2-.08-13.65,2.86-21.11-.62l12.73-2.42c3.18-3.87,5.02-9.29,5.35-14.61l1.25-20.02.03-135.78-1.06-10.08c-.68-6.44-4.94-10.29-11.42-11.05l-10.82-1.26c1.75-1.15,3.73-2.27,4.57-2.24l19.33.7c9.96.36,19.18.16,29.08-.53,4.65-.32,8.67-.62,13.32,1.8-2.94.81-6.12,1.34-9.22,1.38-7.07.1-11.5,5.15-11.83,11.71l-.72,14.57.11,124.78c0,7.64,1.27,14.85,2.08,22.15.67,6.08,4.98,11.13,10.85,12.4,9.1,1.97,18.06,2.9,27.41,2.23l14.21-1.02c6.18-.45,10.99-2.87,15.92-6.74l8.75-20.37Z"/>
  </g>
  <path class="st0" d="M1463.37,228.88c-2.7-.81-4.23-1.46-5.48-2.71l-21.54-21.54-10.37-10.64-18.68-19.22-39.37-41.68-9.48-10.49c-3.44-3.8-5.64-6.54-10.59-10.2l.14,15.63.78,31.96,1.15,38.01c.32,10.44,1.16,18.91,8.59,25.55l16.64,1.4-1.99,2.72-30.22-1.18c-9.51.76-18.81,1.52-28.2.63-12.43-1.18-24.13-.53-36.89.24-.93.06-2.88-.9-3.89-1.81l9.15-1.39c4.31-.65,7.74-2.84,8.55-7.69l1.61-9.59.53-171.74c.01-3.61,1.08-6.77,2.68-9.24l30.01,32.6c2.68,2.92,4.39,5.58,8.95,7.75l.44-36.35c.23-1.06.77-3.69,1.67-3.66s2.74,1.03,3.39,1.74l21.18,23.08,89.51,95.53c1.63-13.81.18-26.88-.01-40.52l-.58-40.01-1.21-21c-.23-4.08-3.27-11.6-7.54-12.22l-16.55-2.4c3.2-2.02,6.15-1.82,10.23-1.5,10.41.82,20.81,1.02,31.05.06l27,.42,10.36-.08,19.71-.81c.06,2.25-1.75,3.31-3.56,3.12-7.23-.72-13.82,4.22-13.85,12.63l-.6,162.53-1.04,22.58c-2.88-1.17-5-2.5-6.99-4.49l-33.46-33.56-1.23,37.52ZM1495.15,179.44l-1.2-50.47-2.13-82.43c-.23-8.99-6.29-14.6-14.83-14.72-5.33-.08-10.63,2.36-11.25,8.11l-1.42,13.14-.09,107.44,30.29,32.62.63-13.69ZM1313.23,220.16c5.07,5.99,16.39,5.4,19.33-1.48,1.49-3.49,2.71-8.7,2.72-12.72l.25-108.47-30.7-33.26.36,37.79.85,29.97.9,36.01.96,31.04c.22,7.14.43,15.34,5.33,21.12ZM1428.9,168.63l23.23,24.83c1.89-4.72,1.75-9.84.9-14.28l-19.5-20.82-17.03-17.99-60.53-66.19-9.23-9.52.34,15.93,40.37,42.9,10.14,10.98,17.66,19.23,13.64,14.94Z"/>
</svg>